<?xml version="1.0" standalone="no"?>
<!DOCTYPE svg PUBLIC "-//W3C//DTD SVG 20010904//EN"
 "http://www.w3.org/TR/2001/REC-SVG-20010904/DTD/svg10.dtd">
<svg version="1.0" xmlns="http://www.w3.org/2000/svg"
 width="400.000000pt" height="400.000000pt" viewBox="0 0 400.000000 400.000000"
 preserveAspectRatio="xMidYMid meet">
<metadata>
Created by potrace 1.11, written by Peter Selinger 2001-2013
</metadata>
<g transform="translate(0.000000,400.000000) scale(0.100000,-0.100000)"
fill="#000000" stroke="none">
<path d="M2930 3913 c-76 -28 -224 -258 -310 -483 -17 -47 -36 -95 -40 -106
-8 -21 -9 -21 -69 9 -111 55 -254 46 -390 -22 l-55 -28 -55 24 c-92 39 -170
82 -296 163 -385 247 -641 353 -910 375 -73 6 -83 5 -108 -15 -29 -23 -35 -51
-14 -68 22 -19 128 -42 189 -42 134 0 391 -71 565 -156 139 -68 343 -209 343
-237 0 -7 -29 -27 -65 -46 -36 -18 -88 -54 -116 -79 -59 -53 -48 -54 -228 17
-311 122 -630 180 -916 168 -245 -10 -390 -58 -344 -113 22 -27 187 -13 323
25 187 53 342 44 646 -39 114 -31 300 -111 300 -130 0 -6 -13 -10 -29 -10 -46
0 -151 -36 -206 -71 -86 -54 -207 -186 -248 -270 -45 -91 -53 -132 -62 -324
-5 -117 -12 -167 -31 -228 -49 -159 -66 -346 -44 -487 38 -237 196 -490 307
-490 84 0 182 59 328 201 99 95 101 96 158 102 31 3 57 4 57 3 0 -2 -44 -32
-97 -67 -179 -117 -283 -237 -283 -324 0 -100 120 -224 335 -349 44 -25 109
-71 143 -101 81 -70 131 -96 202 -102 45 -4 65 -1 98 16 70 36 117 129 110
221 l-3 49 27 -34 c34 -41 133 -114 263 -195 144 -89 193 -129 223 -180 25
-42 27 -52 27 -170 -1 -111 -19 -247 -42 -305 -5 -14 3 -16 53 -13 l58 3 18
60 c10 33 18 70 18 83 0 21 2 20 31 -13 47 -53 106 -75 203 -75 76 0 114 9
231 55 21 9 -61 -68 -104 -97 -26 -18 -25 -18 66 -18 l92 0 77 88 c339 387
468 838 353 1227 -12 38 -32 92 -45 119 l-24 49 39 42 c47 52 54 78 42 180 -8
71 -13 83 -40 107 -17 16 -38 28 -47 28 -12 0 -13 7 -7 38 14 67 8 243 -10
284 -26 57 -72 103 -129 129 -46 20 -69 24 -165 24 -61 0 -111 1 -110 1 1 1
63 33 138 71 178 92 305 178 399 272 85 84 112 132 117 206 8 101 -57 172
-168 183 l-49 5 57 61 c71 77 145 190 173 264 26 68 23 140 -7 180 -82 113
-350 66 -575 -100 -66 -49 -278 -261 -278 -279 0 -5 -4 -9 -8 -9 -5 0 0 39 9
88 43 212 50 529 14 604 -23 47 -63 66 -105 51z m59 -67 c47 -57 22 -498 -42
-726 -6 -25 -41 -99 -76 -165 -36 -66 -82 -158 -103 -205 l-38 -85 0 130 c0
175 44 427 121 694 16 57 28 106 25 108 -11 11 -156 -477 -156 -528 0 -37 -15
-18 -28 34 -6 28 -26 80 -44 115 l-32 63 28 87 c60 185 163 370 251 451 47 43
74 51 94 27z m790 -292 c50 -20 75 -67 65 -121 -15 -86 -107 -223 -242 -365
-41 -43 -73 -81 -70 -83 3 -3 29 0 58 6 65 14 152 6 187 -16 13 -9 31 -32 39
-52 13 -31 13 -40 -1 -82 -42 -127 -258 -294 -548 -424 -162 -73 -683 -264
-693 -255 -1 2 8 26 22 53 20 43 30 53 71 69 104 41 415 199 543 276 124 75
313 205 385 265 17 14 -28 -14 -100 -61 -272 -179 -537 -320 -773 -413 l-54
-21 22 30 c26 37 89 90 350 295 112 88 215 171 229 184 l26 23 -30 -18 c-16
-10 -72 -49 -123 -87 -52 -37 -95 -67 -97 -65 -2 2 13 39 34 83 82 174 231
385 359 508 38 37 68 67 65 67 -3 0 -41 -32 -85 -72 -158 -142 -295 -329 -399
-542 -36 -73 -60 -109 -87 -129 -47 -37 -180 -127 -186 -127 -19 0 105 317
170 438 110 201 273 399 418 508 160 121 337 171 445 128z m-1330 -265 c17 -6
31 -15 31 -21 0 -5 4 -7 9 -4 13 8 63 -53 89 -109 34 -76 51 -175 58 -335 10
-229 -28 -440 -105 -584 -42 -79 -50 -91 -61 -89 -5 2 -7 -3 -4 -11 3 -8 -5
-21 -18 -30 -12 -9 -19 -16 -14 -16 24 0 -183 -211 -286 -291 -43 -33 -78 -58
-78 -56 0 3 -14 -8 -31 -24 -17 -16 -35 -27 -39 -24 -5 3 -12 1 -15 -5 -4 -6
-16 -8 -27 -4 -13 4 -18 2 -14 -4 3 -6 -8 -15 -26 -21 -38 -13 -41 -14 -33 -1
3 5 2 10 -4 10 -5 0 -14 -7 -18 -15 -5 -8 -27 -16 -49 -18 -23 -2 -46 -7 -52
-11 -19 -11 -199 -19 -182 -7 12 8 12 11 1 11 -11 0 -11 3 0 16 18 22 68 46
79 39 6 -3 10 -1 10 5 0 6 5 8 10 5 6 -3 10 -2 10 3 0 5 28 21 63 37 34 16 93
51 131 78 37 26 66 45 63 40 -3 -5 3 -9 13 -9 14 0 16 3 8 13 -13 17 4 17 22
1 8 -7 6 -3 -4 10 -11 12 -14 22 -8 22 17 0 15 20 -4 27 -8 3 -25 -4 -40 -17
-13 -13 -24 -20 -24 -16 0 5 -8 -1 -17 -12 -25 -29 -111 -74 -125 -66 -6 4 -8
3 -5 -3 4 -6 -3 -13 -15 -17 -79 -20 4 80 114 138 84 44 221 134 258 169 20
19 28 21 37 11 7 -6 9 -15 5 -19 -4 -3 5 -2 19 3 16 7 32 7 45 0 18 -9 18 -9
1 5 -10 8 -26 13 -36 10 -11 -3 -21 2 -24 11 -5 12 0 14 23 11 16 -2 33 -6 38
-9 8 -5 9 12 3 49 -1 6 -11 -1 -22 -14 -11 -13 -22 -21 -26 -18 -3 4 16 26 43
49 83 71 188 180 224 233 19 28 38 53 43 56 5 3 8 8 7 10 -1 2 3 17 9 32 6 16
11 35 11 43 0 8 5 12 10 9 7 -4 7 -12 0 -25 -18 -34 -11 -74 18 -106 15 -17
26 -37 24 -45 -3 -12 -2 -12 6 0 5 7 7 22 4 34 -3 12 -1 18 5 14 11 -7 8 72
-3 82 -4 3 -4 -8 -1 -26 4 -18 2 -35 -3 -38 -10 -6 -14 13 -11 47 3 22 -15 32
-23 12 -3 -8 -2 -13 2 -10 5 3 9 -8 9 -25 0 -17 -5 -28 -11 -26 -18 6 -18 64
-1 91 13 19 14 32 7 60 -12 42 -9 46 35 46 18 0 33 5 33 11 0 10 -28 9 -70 -2
-8 -2 -14 2 -15 9 0 6 -13 28 -28 47 -37 47 -23 45 20 -2 19 -21 31 -30 28
-21 -5 12 0 18 17 21 17 3 16 4 -5 2 -37 -2 -53 18 -34 45 7 11 17 17 20 13 4
-3 7 -1 7 5 0 7 -3 12 -7 12 -11 -1 -48 -30 -38 -30 4 0 6 -3 3 -6 -4 -3 -16
0 -28 6 -15 8 -20 8 -16 1 9 -13 -4 -14 -24 -1 -20 12 -11 18 33 23 62 7 51
13 -21 12 -71 -2 -106 -11 -96 -26 5 -8 -20 -13 -68 -12 -10 0 -16 -3 -13 -5
3 -3 -10 -15 -29 -26 -48 -30 -86 -65 -125 -113 -19 -23 -38 -40 -42 -37 -5 3
-6 -3 -2 -12 4 -12 3 -15 -5 -10 -7 4 -10 2 -7 -6 3 -7 -4 -26 -15 -43 -21
-32 -28 -18 -9 17 9 17 7 24 -12 42 l-23 21 18 -22 c14 -17 15 -26 7 -40 -10
-17 -10 -17 -11 2 -1 11 -4 14 -7 8 -7 -20 -23 -15 -17 5 5 14 4 15 -5 2 -17
-23 -13 -39 8 -35 13 2 20 -3 23 -20 4 -18 1 -22 -11 -18 -13 5 -13 3 -4 -7
13 -14 6 -43 -8 -34 -5 3 -6 -2 -3 -10 4 -9 0 -18 -9 -22 -9 -3 -14 -11 -11
-18 3 -7 -3 -19 -13 -27 -16 -13 -17 -12 -4 4 7 9 9 17 3 17 -13 0 -23 -26
-16 -44 3 -8 -4 -24 -15 -35 -12 -12 -18 -21 -15 -21 3 0 -6 -21 -21 -47 -15
-27 -39 -68 -52 -93 -14 -25 -33 -51 -42 -58 -9 -7 -14 -14 -11 -16 6 -4 -74
-133 -117 -189 -15 -20 -36 -48 -47 -63 -15 -21 -21 -23 -28 -13 -7 11 -8 9
-4 -5 4 -13 -5 -30 -33 -58 -22 -21 -41 -43 -43 -47 -4 -12 -77 -91 -84 -91
-3 0 -2 5 1 10 10 16 -1 11 -16 -7 -11 -13 -11 -15 -1 -9 11 7 11 4 0 -13 -7
-12 -19 -19 -26 -16 -7 3 -10 0 -7 -5 3 -6 1 -10 -4 -10 -11 0 -15 13 -12 37
1 6 -2 14 -7 16 -10 7 -8 -60 3 -70 4 -5 5 -2 0 6 -6 10 -4 12 4 6 7 -4 9 -11
4 -15 -92 -84 -159 -140 -166 -140 -4 0 -15 -7 -23 -15 -10 -9 -28 -14 -47
-11 -18 2 -50 0 -72 -4 -36 -8 -35 -8 17 -6 32 2 55 -1 52 -6 -3 -4 -30 -8
-60 -8 -85 0 -110 35 -146 212 -10 50 -10 61 2 68 13 8 12 10 -2 10 -13 0 -17
17 -23 107 -9 123 -2 270 13 285 6 6 8 17 5 24 -3 8 0 14 6 14 6 0 8 7 5 15
-4 9 -1 28 5 43 19 47 30 122 17 122 -11 0 -46 -69 -51 -100 -1 -8 -10 -47
-19 -86 -30 -126 -37 -415 -12 -504 6 -23 6 -23 -5 -6 -7 11 -13 29 -15 40 -1
12 -9 36 -16 55 -10 27 -10 35 0 38 13 5 17 73 4 73 -5 0 -7 -14 -4 -30 3 -18
0 -30 -7 -30 -6 0 -11 10 -12 23 -2 48 -8 101 -13 113 -3 7 -1 16 4 19 6 4 10
13 10 21 0 8 -5 12 -10 9 -11 -7 -13 100 -4 183 7 51 17 66 27 38 8 -19 -4
-91 -12 -77 -4 6 -7 -11 -8 -37 -1 -50 -1 -50 25 48 5 19 12 46 16 60 5 17 4
21 -2 11 -8 -11 -11 -9 -17 8 -3 12 -11 18 -17 15 -7 -5 -9 -2 -6 7 3 8 13 40
22 72 9 32 21 55 26 52 6 -3 5 -16 0 -31 -6 -14 -10 -31 -9 -37 0 -7 6 4 13
23 9 24 10 39 3 48 -13 17 8 87 34 113 12 12 18 23 15 26 -3 3 2 18 11 34 13
22 14 33 6 52 -7 15 -8 29 -1 40 14 27 2 20 -17 -9 -9 -15 -12 -23 -6 -20 14
9 14 0 0 -25 -5 -11 -15 -16 -21 -13 -7 4 -8 3 -4 -4 4 -7 0 -22 -8 -34 -24
-34 -20 -1 8 58 13 28 38 67 57 88 32 37 33 38 41 15 6 -15 5 -25 -3 -30 -7
-4 -9 -14 -6 -22 3 -9 0 -20 -7 -26 -8 -6 -13 -22 -14 -36 0 -26 12 -19 36 24
12 20 12 25 0 32 -11 8 -11 11 1 18 8 5 11 16 8 26 -4 9 -3 14 2 11 5 -3 14 7
19 23 6 15 21 39 34 51 12 13 17 20 11 16 -18 -10 -16 -4 10 32 13 17 28 28
32 24 5 -4 5 -2 2 5 -14 23 122 163 158 163 17 0 18 -2 9 -25 -6 -13 -9 -14
-16 -3 -7 10 -8 9 -4 -4 6 -21 -4 -23 -24 -5 -8 6 -6 2 5 -11 13 -16 21 -19
26 -10 6 9 11 9 21 0 11 -9 16 -5 25 18 6 17 7 30 2 30 -5 0 -9 -6 -9 -14 0
-8 -5 -18 -10 -21 -7 -4 -9 7 -6 29 3 26 1 35 -7 30 -7 -3 -1 4 13 15 30 25
44 26 64 5 15 -14 16 -14 16 0 0 9 -7 16 -15 16 -26 0 -17 15 26 43 23 15 39
22 36 15 -47 -117 -77 -160 -77 -110 0 15 2 15 10 2 5 -8 10 -10 10 -4 0 6
-10 19 -22 30 -12 10 -18 13 -13 5 6 -10 4 -13 -7 -9 -8 4 -15 0 -15 -8 0 -7
4 -11 9 -8 15 9 21 -27 8 -51 -7 -13 -10 -29 -7 -37 3 -7 6 -4 6 9 1 21 17 40
27 31 4 -4 -16 -57 -46 -123 -21 -46 -33 -81 -31 -92 4 -23 -48 -110 -85 -143
-32 -27 -39 -30 -48 -18 -6 8 -18 13 -26 11 -10 -3 -8 2 5 12 20 17 20 17 -4
10 -22 -7 -23 -5 -17 20 9 34 -2 74 -15 54 -5 -8 -9 -18 -9 -24 0 -5 5 -3 10
5 8 12 10 11 10 -6 0 -16 -6 -21 -25 -21 -21 0 -25 4 -25 31 -1 30 -1 30 -16
11 -20 -26 -14 -93 12 -128 20 -28 61 -52 81 -48 7 1 22 -3 34 -10 12 -6 19
-7 15 -1 -8 14 34 23 55 11 15 -7 17 -6 13 6 -4 8 -1 15 5 15 18 0 12 -28 -10
-43 -11 -8 -30 -13 -42 -10 -16 4 -18 2 -8 -5 10 -8 0 -19 -45 -48 -63 -42
-108 -98 -100 -126 2 -11 0 -15 -6 -12 -11 7 -11 6 11 -38 14 -27 57 -41 48
-15 -2 6 -12 11 -21 11 -30 -3 -18 42 21 77 42 37 104 75 116 71 4 -1 7 2 7 7
0 5 18 16 40 25 40 16 60 45 63 91 0 11 5 26 10 33 6 7 7 15 3 19 -3 3 -6 1
-6 -5 0 -7 -8 -12 -17 -11 -11 0 -13 3 -5 6 6 2 10 9 6 14 -3 5 -1 9 5 9 6 0
8 7 5 15 -6 15 -26 22 -22 8 4 -15 -13 -53 -23 -53 -6 0 -7 6 -3 13 4 6 -5 0
-21 -16 -15 -15 -31 -25 -34 -22 -3 3 18 28 45 56 l51 51 37 -86 c20 -48 34
-92 30 -98 -4 -6 -3 -8 3 -5 11 7 59 -53 55 -68 -2 -5 -1 -7 3 -3 4 3 30 -4
58 -17 29 -13 61 -25 72 -26 28 -4 138 11 150 20 46 35 65 7 25 -36 l-28 -30
28 -1 c20 0 40 11 71 43 24 24 46 42 50 40 3 -2 6 1 6 8 0 22 45 87 55 80 7
-4 4 -11 -7 -20 -11 -7 -14 -13 -9 -13 20 0 33 22 23 39 -7 11 -6 26 6 51 9
19 14 25 11 12 -2 -13 0 -20 6 -16 5 4 8 18 5 33 -6 30 22 153 33 146 4 -2 5
7 2 22 -3 17 -1 24 6 19 8 -4 11 4 11 26 -1 42 28 111 43 102 7 -5 8 -3 3 5
-17 29 86 102 169 121 53 12 74 6 35 -9 -18 -8 -20 -10 -6 -10 10 -1 28 4 39
10 17 9 18 13 7 20 -9 6 1 9 31 9 33 0 41 -3 30 -10 -13 -8 -12 -10 3 -10 26
0 47 24 37 41 -6 9 -35 15 -90 17 l-80 4 0 38 c0 22 4 41 10 45 5 3 6 13 3 22
-6 15 -7 14 -14 -3 -7 -18 -8 -18 -8 3 -1 12 -4 30 -7 40 -5 15 -4 16 5 3 8
-12 10 -7 7 20 -3 19 -5 38 -5 43 -1 4 -6 7 -13 7 -9 0 -9 -3 -1 -11 6 -6 9
-18 6 -26 -4 -11 -10 -5 -19 17 -8 18 -11 36 -8 41 3 5 0 9 -6 9 -6 0 -8 5 -4
12 5 8 13 4 26 -11 10 -13 18 -19 18 -13 0 16 -30 43 -41 37 -9 -6 -66 41 -59
49 13 13 109 43 132 42 14 -1 24 2 22 6 -8 12 129 9 165 -3z m-739 -219 c37
-20 63 -60 68 -108 5 -60 -16 -105 -59 -128 -23 -11 -28 -19 -20 -27 20 -20
13 -84 -11 -101 -30 -21 -50 -20 -82 5 -31 24 -36 78 -10 104 15 15 15 17 -5
31 -51 36 -66 124 -31 182 33 53 94 70 150 42z m705 -290 c3 -5 -1 -10 -10
-10 -9 0 -13 5 -10 10 3 6 8 10 10 10 2 0 7 -4 10 -10z m-162 -224 c39 -17
102 -81 116 -119 9 -24 8 -33 -8 -55 -41 -57 -256 -252 -364 -331 -62 -45
-207 -127 -207 -117 0 4 10 23 23 44 13 20 61 105 107 187 45 83 96 171 112
197 l29 47 45 -20 c58 -24 60 -24 35 7 -36 46 -23 120 27 162 20 16 45 15 85
-2z m-1164 -59 c6 -8 8 -17 4 -20 -3 -4 -2 -7 3 -7 6 0 19 -7 30 -15 19 -15
19 -15 -1 -8 -26 8 -44 22 -56 45 -11 21 3 25 20 5z m711 -242 c-7 -9 -15 -13
-19 -10 -3 3 1 10 9 15 21 14 24 12 10 -5z m1652 -29 c44 -22 61 -46 33 -46
-9 0 -13 5 -10 10 4 6 -11 4 -32 -4 -21 -8 -45 -17 -53 -20 -8 -3 18 -4 57 -3
40 0 67 5 60 9 -9 6 -9 8 0 8 19 0 46 -47 47 -80 1 -17 4 -30 9 -30 11 0 9
-128 -3 -135 -5 -3 -7 -12 -3 -21 3 -8 0 -34 -7 -59 -10 -37 -10 -47 4 -66 17
-24 22 -99 7 -99 -4 0 -6 -11 -4 -24 3 -14 10 -23 17 -20 7 3 12 -4 12 -16 0
-14 -5 -19 -16 -15 -13 4 -13 3 1 -7 9 -7 19 -20 22 -28 5 -10 6 -9 4 5 -1 11
2 26 7 34 6 9 5 12 -2 7 -10 -6 -10 6 -3 57 0 5 4 6 9 4 4 -3 5 15 3 39 -2 27
1 44 8 44 36 0 42 -133 8 -177 -30 -38 -117 -73 -182 -73 -47 0 -58 4 -89 34
-43 40 -45 65 -16 191 11 47 20 97 20 111 0 13 5 33 12 44 9 15 9 24 -1 43 -7
13 -14 36 -14 50 -1 14 -4 25 -7 24 -3 -1 -17 7 -33 17 -21 14 -39 17 -77 14
-28 -3 -53 -1 -56 3 -3 5 -13 9 -22 9 -14 0 -15 -2 -2 -10 22 -14 9 -19 -20
-8 l-25 10 23 11 c16 7 30 7 49 -2 23 -11 25 -10 13 3 -9 12 -27 15 -66 13
-30 -2 -57 -7 -61 -11 -5 -4 6 -5 22 -2 17 3 24 3 17 0 -10 -4 -7 -10 9 -22
l23 -16 -40 -17 c-43 -19 -68 -24 -60 -11 3 5 -1 9 -9 9 -11 0 -12 -4 -4 -13
12 -15 -17 -34 -40 -26 -9 3 -11 0 -6 -9 5 -8 5 -11 1 -7 -5 4 -13 2 -20 -3
-17 -15 -117 -79 -148 -95 -15 -8 -47 -14 -72 -14 -36 0 -52 6 -77 28 -27 24
-33 38 -37 83 -5 67 18 100 91 135 47 21 53 22 85 8 40 -16 53 -18 32 -3 -11
8 -7 9 18 4 21 -4 32 -3 32 5 0 6 10 11 23 10 12 -1 29 -1 37 0 24 2 -20 18
-54 19 -22 1 -27 -3 -22 -15 5 -13 2 -15 -11 -9 -10 4 -29 7 -43 7 l-25 -1 26
14 c37 20 230 85 314 105 41 10 113 17 173 17 85 1 109 -3 144 -21z m15 -52
c-3 -3 -12 -4 -19 -1 -8 3 -5 6 6 6 11 1 17 -2 13 -5z m-177 -220 c8 -21 4
-104 -5 -104 -17 0 -155 75 -155 85 0 14 81 43 123 44 21 1 30 -5 37 -25z
m-154 -176 c10 -12 13 -18 7 -14 -9 5 -11 2 -7 -8 3 -9 10 -14 15 -11 13 9 29
-29 18 -46 -5 -7 -9 -18 -9 -24 1 -5 6 -1 12 10 11 18 13 17 29 -20 11 -24 14
-41 8 -43 -6 -3 -5 -9 2 -18 16 -20 6 -147 -16 -201 -13 -31 -22 -40 -34 -35
-13 5 -14 3 -4 -9 10 -13 8 -22 -13 -50 -33 -46 -48 -43 -52 9 -2 28 -8 42
-18 42 -10 0 -14 -14 -14 -56 0 -35 4 -53 10 -49 6 4 7 11 4 17 -4 6 2 5 15
-2 25 -13 20 -24 -23 -52 -17 -11 -22 -17 -11 -14 11 3 -7 -19 -40 -48 -60
-55 -88 -64 -125 -41 -8 5 -11 4 -7 -2 4 -5 -5 -16 -18 -23 -14 -7 -25 -17
-25 -22 0 -11 17 -10 25 2 3 5 13 6 22 3 12 -5 15 -2 10 9 -4 12 1 15 19 14
24 -1 24 -1 -8 -28 -43 -35 -216 -120 -229 -113 -5 4 -9 1 -9 -4 0 -6 -5 -11
-11 -11 -6 0 -8 8 -5 18 5 13 2 12 -11 -4 -23 -28 -66 -42 -57 -20 3 9 15 16
27 16 11 0 18 3 14 6 -12 12 -55 -6 -60 -25 -9 -36 -159 -41 -254 -8 -50 17
-113 67 -108 84 3 7 -1 12 -8 10 -7 -1 -12 6 -12 16 0 10 -6 21 -12 25 -7 4
-17 28 -22 52 -13 58 -13 70 0 70 5 0 8 -3 6 -7 -3 -5 10 -9 29 -10 19 -1 34
2 34 6 0 4 17 8 38 9 36 1 157 27 197 42 11 4 53 22 94 39 40 17 78 28 84 24
6 -3 7 -1 3 5 -4 7 -2 12 4 12 6 0 18 7 26 15 18 17 24 18 43 6 18 -12 4 -33
-17 -27 -10 3 -23 2 -31 -3 -9 -6 -5 -8 15 -7 16 1 35 5 42 9 7 5 12 4 12 -2
0 -6 5 -11 11 -11 5 0 7 5 4 11 -9 13 25 51 40 45 8 -3 12 6 11 24 -1 30 -21
30 -31 0 -10 -30 -31 -43 -52 -31 -10 6 -15 11 -10 12 4 1 10 2 15 3 9 1 72
50 124 95 21 19 41 32 44 29 2 -3 -14 -22 -36 -42 -38 -34 -45 -56 -17 -56 8
0 8 3 -2 9 -10 7 -10 10 -1 16 7 4 16 1 21 -6 8 -12 11 -12 19 1 5 8 8 21 5
28 -3 8 2 20 10 29 8 8 13 18 10 23 -3 4 2 13 11 20 12 11 17 11 27 0 10 -10
9 -12 -3 -8 -10 4 -16 0 -16 -12 0 -11 7 -18 17 -17 9 1 15 7 12 14 -3 7 0 13
6 13 6 0 11 5 11 11 0 5 -4 8 -9 5 -5 -3 -11 0 -14 7 -2 7 22 46 56 87 33 41
67 92 77 112 9 21 20 35 24 30 4 -4 7 0 5 8 -3 14 9 60 15 60 2 0 11 -10 22
-22z m-1318 -215 c-2 -13 -13 -18 -35 -18 -37 -1 -51 -10 -28 -19 10 -4 14 -2
9 5 -4 8 1 9 17 4 13 -4 25 -8 25 -9 1 0 4 -36 7 -79 3 -43 11 -84 17 -92 6
-8 9 -19 5 -25 -3 -5 2 -10 12 -10 10 0 -22 -23 -71 -50 -49 -28 -91 -50 -94
-50 -3 0 -14 -8 -25 -17 -19 -17 -20 -17 -8 5 6 12 18 22 26 22 8 0 15 4 15 9
0 5 15 11 33 15 25 5 29 9 17 16 -21 13 -39 12 -20 -1 11 -8 6 -9 -20 -3 -56
11 -93 10 -96 -4 -1 -7 0 -8 3 -2 2 5 12 10 20 10 14 0 15 -2 1 -17 -19 -22
-34 -78 -18 -68 5 3 10 13 10 22 0 24 30 53 53 53 11 0 17 -3 13 -7 -4 -5 -13
-8 -19 -8 -15 0 -65 -101 -63 -129 0 -13 5 -22 10 -18 5 3 7 -2 3 -11 -4 -11
-2 -14 9 -10 8 3 14 -1 14 -11 0 -9 -6 -13 -14 -10 -8 3 -16 1 -19 -3 -3 -5
10 -9 30 -10 24 0 31 2 22 8 -28 18 1 8 72 -24 41 -19 110 -42 154 -51 146
-31 183 -65 170 -153 -5 -33 -17 -56 -44 -86 -33 -35 -44 -41 -86 -43 -64 -4
-113 18 -164 71 -24 25 -47 45 -52 45 -5 0 -9 5 -9 11 0 5 5 7 12 3 7 -4 8 -3
4 5 -4 6 -11 9 -16 6 -11 -7 -26 0 -132 62 -43 25 -75 50 -71 56 4 6 1 7 -6 3
-18 -11 -56 25 -39 36 9 6 6 7 -7 4 -32 -9 -119 80 -134 136 -10 39 -8 48 17
98 16 30 34 54 41 52 7 -1 10 2 6 7 -6 10 33 37 48 33 4 -1 7 4 7 11 0 18 58
60 71 52 5 -4 7 -15 4 -26 -8 -23 10 -26 19 -3 4 9 13 13 23 10 10 -3 25 -1
33 4 8 5 11 10 5 10 -5 0 -3 4 5 10 8 5 11 12 7 16 -10 10 -38 -16 -30 -29 4
-7 0 -8 -13 -3 -10 4 -24 9 -31 10 -24 4 -23 14 3 31 22 14 28 15 36 4 8 -11
9 -10 5 3 -4 10 3 22 16 30 71 45 97 59 97 50 0 -11 -49 -45 -65 -45 -6 0 -17
-7 -25 -16 -13 -13 -12 -14 5 -6 11 4 35 8 53 7 20 -1 31 2 27 8 -3 6 5 10 19
10 13 0 26 -6 29 -12 2 -7 7 -10 11 -7 3 3 -5 18 -19 33 -27 29 -32 46 -14 46
16 0 69 -60 69 -78 0 -8 3 -13 6 -9 8 8 -6 68 -15 63 -7 -5 -46 33 -39 38 68
47 102 57 96 29z m-144 -98 c-10 -8 -23 -14 -29 -14 -5 -1 1 8 15 19 14 10 27
17 29 14 3 -2 -4 -11 -15 -19z m1196 -55 c0 -5 -5 -10 -11 -10 -5 0 -7 5 -4
10 3 6 8 10 11 10 2 0 4 -4 4 -10z m726 -116 c-3 -7 -1 -16 3 -18 4 -3 14 -40
22 -83 19 -107 17 -290 -4 -383 -33 -143 -43 -161 -115 -231 -125 -120 -132
-125 -143 -109 -9 13 -10 12 -6 -2 11 -33 -176 -122 -238 -112 -24 3 -26 3
-10 -5 24 -11 -146 -15 -209 -4 l-39 6 24 18 c13 10 18 19 11 19 -7 0 -10 5
-6 12 4 7 3 8 -5 4 -6 -4 -9 -12 -5 -17 3 -6 -6 -8 -23 -4 -20 4 -23 3 -9 -3
34 -15 -1 -24 -38 -11 -32 11 -35 16 -41 65 -3 30 -17 74 -30 99 -14 25 -22
45 -19 45 2 0 0 9 -6 21 -7 11 -14 18 -17 15 -3 -3 0 -14 7 -23 7 -10 -3 -2
-23 18 -19 20 -41 39 -49 42 -7 3 16 2 52 -1 84 -9 161 -9 230 0 50 6 53 6 36
-7 -16 -12 -17 -15 -4 -15 9 0 18 6 21 14 3 7 38 23 79 35 40 12 98 34 129 50
42 21 60 26 73 19 21 -12 46 5 25 17 -8 5 -10 4 -5 -3 4 -7 3 -12 -2 -12 -27
0 -14 18 44 63 68 51 124 105 151 144 8 13 20 20 26 16 6 -4 8 0 4 10 -3 9 0
22 7 30 7 7 29 52 48 100 19 48 37 85 39 83 2 -3 4 24 3 59 -1 37 3 62 8 59 5
-3 7 -12 4 -20z m-1636 -61 c48 -27 49 -30 55 -83 4 -30 13 -75 21 -99 8 -25
14 -46 14 -47 0 -2 -15 3 -32 11 -18 7 -70 21 -114 30 -84 18 -209 72 -207 90
0 8 198 125 210 125 2 0 25 -12 53 -27z"/>
<path d="M2316 3276 c3 -8 12 -12 20 -9 17 6 9 23 -11 23 -8 0 -12 -6 -9 -14z"/>
<path d="M2225 3260 c-3 -5 -16 -10 -27 -10 -26 0 -21 -5 12 -13 21 -5 26 -3
26 13 0 23 -2 24 -11 10z"/>
<path d="M2388 3235 c-10 -13 -30 -26 -45 -28 -20 -3 -15 -4 15 -6 36 -1 42 2
42 19 0 11 5 20 10 20 6 0 10 5 10 10 0 17 -14 11 -32 -15z"/>
<path d="M2150 3241 c0 -6 4 -12 8 -15 5 -3 9 1 9 9 0 8 -4 15 -9 15 -4 0 -8
-4 -8 -9z"/>
<path d="M2258 3243 c6 -2 18 -2 25 0 6 3 1 5 -13 5 -14 0 -19 -2 -12 -5z"/>
<path d="M2492 3229 c-10 -16 -10 -20 2 -25 8 -3 12 -12 10 -19 -7 -18 15 -30
29 -16 8 8 8 11 -2 11 -7 0 -9 5 -6 10 3 6 1 10 -6 10 -8 0 -9 3 0 14 8 10 8
16 -2 24 -10 8 -16 6 -25 -9z m23 -9 c-3 -5 -11 -10 -16 -10 -6 0 -7 5 -4 10
3 6 11 10 16 10 6 0 7 -4 4 -10z"/>
<path d="M2312 3045 c0 -16 2 -22 5 -12 2 9 2 23 0 30 -3 6 -5 -1 -5 -18z"/>
<path d="M2572 3060 c0 -8 4 -26 8 -40 l8 -25 2 25 c1 23 2 23 10 5 5 -13 9
-14 9 -5 0 8 -4 24 -9 35 l-9 20 -1 -20 -1 -20 -9 20 c-5 12 -8 14 -8 5z"/>
<path d="M2576 2974 c-22 -21 -20 -27 4 -12 11 7 20 16 20 20 0 12 -7 10 -24
-8z"/>
<path d="M2257 2961 c-6 -24 39 -37 47 -14 4 11 1 13 -15 8 -14 -5 -19 -3 -15
3 3 6 2 13 -3 16 -5 3 -11 -3 -14 -13z"/>
<path d="M2338 2953 c-28 -7 -21 -21 7 -15 14 2 25 8 25 13 0 9 -4 10 -32 2z"/>
<path d="M2439 2946 c7 -8 16 -27 21 -43 8 -27 8 -27 9 -3 0 25 -19 60 -34 60
-4 0 -2 -6 4 -14z"/>
<path d="M2586 2943 c-4 -9 -2 -21 4 -27 7 -7 10 -2 10 17 0 31 -5 34 -14 10z"/>
<path d="M2395 2940 c-19 -8 -19 -9 3 -9 12 -1 22 4 22 9 0 6 -1 10 -2 9 -2 0
-12 -4 -23 -9z"/>
<path d="M2432 2900 c0 -14 2 -19 5 -12 2 6 2 18 0 25 -3 6 -5 1 -5 -13z"/>
<path d="M2203 2843 c-7 -2 -13 -8 -13 -13 0 -5 6 -10 13 -13 6 -2 4 -3 -5 -2
-10 2 -22 -3 -28 -10 -11 -13 8 -11 78 11 l23 7 -27 13 c-14 8 -27 14 -28 13
0 0 -7 -3 -13 -6z m32 -13 c3 -5 2 -10 -4 -10 -5 0 -13 5 -16 10 -3 6 -2 10 4
10 5 0 13 -4 16 -10z"/>
<path d="M2306 2825 c-3 -8 -1 -15 4 -15 6 0 10 7 10 15 0 8 -2 15 -4 15 -2 0
-6 -7 -10 -15z"/>
<path d="M2150 2817 c-9 -7 -14 -20 -12 -30 2 -11 -5 -25 -17 -33 -12 -9 -21
-20 -21 -25 0 -6 13 0 29 13 20 15 28 29 24 41 -2 10 1 24 7 32 15 18 10 19
-10 2z"/>
<path d="M1293 2785 c-3 -9 -3 -18 -1 -21 3 -3 8 4 11 16 6 23 -1 27 -10 5z"/>
<path d="M2255 2790 c3 -5 1 -10 -6 -10 -7 0 -10 -2 -7 -5 8 -9 38 6 32 16 -3
5 -10 9 -15 9 -6 0 -7 -4 -4 -10z"/>
<path d="M2348 2793 c7 -3 16 -2 19 1 4 3 -2 6 -13 5 -11 0 -14 -3 -6 -6z"/>
<path d="M1155 2764 c-13 -20 -14 -29 -5 -38 8 -8 10 -7 5 5 -4 10 -2 20 4 24
6 3 11 1 11 -5 0 -6 5 -8 12 -4 8 5 9 2 5 -10 -4 -9 -3 -15 2 -11 13 7 8 58
-5 62 -6 2 -19 -8 -29 -23z m35 6 c0 -5 -5 -10 -11 -10 -5 0 -7 5 -4 10 3 6 8
10 11 10 2 0 4 -4 4 -10z"/>
<path d="M2110 2779 c0 -5 5 -7 10 -4 6 3 10 8 10 11 0 2 -4 4 -10 4 -5 0 -10
-5 -10 -11z"/>
<path d="M1311 2764 c0 -11 3 -14 6 -6 3 7 2 16 -1 19 -3 4 -6 -2 -5 -13z"/>
<path d="M2085 2760 c3 -5 8 -10 11 -10 2 0 4 5 4 10 0 6 -5 10 -11 10 -5 0
-7 -4 -4 -10z"/>
<path d="M2232 2751 c-11 -7 -11 -9 0 -13 18 -7 39 2 32 13 -6 11 -15 11 -32
0z"/>
<path d="M2545 2749 c-4 -6 -5 -12 -2 -15 2 -3 7 2 10 11 7 17 1 20 -8 4z"/>
<path d="M2142 2733 c-11 -11 -9 -15 7 -21 19 -7 21 -10 21 -32 0 -5 9 -2 20
7 11 10 20 22 20 28 0 5 -4 4 -9 -4 -9 -13 -35 -6 -27 7 2 4 -1 12 -8 18 -9 8
-15 7 -24 -3z"/>
<path d="M2610 2740 c0 -5 5 -10 11 -10 5 0 7 5 4 10 -3 6 -8 10 -11 10 -2 0
-4 -4 -4 -10z"/>
<path d="M2050 2705 c0 -11 -7 -29 -15 -39 -9 -11 -11 -24 -6 -30 4 -6 11 -23
15 -38 3 -16 11 -28 16 -28 6 0 6 9 0 26 -14 36 -12 44 8 38 14 -5 14 -4 2 4
-8 6 -18 8 -24 5 -5 -4 -7 1 -3 11 4 10 7 20 7 23 0 3 7 -1 17 -8 15 -13 15
-12 6 6 -6 11 -13 27 -16 35 -4 11 -6 9 -7 -5z"/>
<path d="M2070 2710 c0 -5 5 -10 11 -10 5 0 7 5 4 10 -3 6 -8 10 -11 10 -2 0
-4 -4 -4 -10z"/>
<path d="M2575 2690 c3 -5 8 -10 11 -10 2 0 4 5 4 10 0 6 -5 10 -11 10 -5 0
-7 -4 -4 -10z"/>
<path d="M1085 2680 c-2 -4 0 -20 5 -36 l10 -29 -5 33 c-3 19 -1 31 4 27 5 -3
12 -2 15 3 3 5 -2 9 -10 9 -8 0 -17 -3 -19 -7z"/>
<path d="M1222 2615 c0 -16 2 -22 5 -12 2 9 2 23 0 30 -3 6 -5 -1 -5 -18z"/>
<path d="M1250 2633 c0 -4 5 -15 10 -23 8 -13 10 -13 10 2 0 9 -4 20 -10 23
-5 3 -10 3 -10 -2z"/>
<path d="M2106 2618 c-11 -15 -15 -17 -12 -6 3 12 1 15 -10 11 -20 -7 -18 -28
4 -30 10 -1 24 8 31 19 18 28 7 33 -13 6z"/>
<path d="M1060 2621 c0 -5 7 -11 14 -14 10 -4 13 -1 9 9 -6 15 -23 19 -23 5z"/>
<path d="M2605 2610 c-3 -5 -1 -10 4 -10 6 0 11 5 11 10 0 6 -2 10 -4 10 -3 0
-8 -4 -11 -10z"/>
<path d="M1058 2568 c3 -21 7 -26 13 -17 13 20 11 36 -4 42 -10 4 -12 -3 -9
-25z"/>
<path d="M1106 2587 c3 -10 9 -15 12 -12 3 3 0 11 -7 18 -10 9 -11 8 -5 -6z"/>
<path d="M2570 2570 c0 -5 5 -10 11 -10 5 0 7 5 4 10 -3 6 -8 10 -11 10 -2 0
-4 -4 -4 -10z"/>
<path d="M1204 2550 c0 -9 6 -17 12 -17 7 0 10 7 6 15 -3 10 -1 13 6 8 7 -4
12 -3 12 3 0 5 -8 9 -18 8 -10 0 -18 -8 -18 -17z"/>
<path d="M2603 2555 c-3 -9 -3 -18 -1 -21 3 -3 8 4 11 16 6 23 -1 27 -10 5z"/>
<path d="M1986 2478 c3 -5 10 -6 15 -3 13 9 11 12 -6 12 -8 0 -12 -4 -9 -9z"/>
<path d="M1000 2473 c0 -5 8 -17 17 -28 14 -18 15 -18 9 -2 -3 10 -6 23 -6 28
0 5 -4 9 -10 9 -5 0 -10 -3 -10 -7z"/>
<path d="M1970 2451 c0 -6 5 -13 10 -16 6 -3 10 1 10 9 0 9 -4 16 -10 16 -5 0
-10 -4 -10 -9z"/>
<path d="M2486 2441 c-12 -19 6 -38 34 -37 22 1 26 4 18 14 -6 7 -19 10 -29 7
-11 -4 -19 -2 -19 4 0 5 8 12 18 14 15 4 15 5 0 6 -9 0 -19 -3 -22 -8z"/>
<path d="M999 2417 c16 -20 16 -20 -25 -8 -23 6 -31 5 -31 -4 0 -7 7 -11 15
-7 8 3 21 -3 29 -14 12 -16 15 -17 23 -4 13 20 8 42 -10 48 -13 5 -13 3 -1
-11z"/>
<path d="M1335 2397 c4 -8 -1 -29 -9 -45 -14 -27 -14 -31 0 -36 12 -5 15 -2
10 10 -4 9 0 27 8 39 14 21 14 25 0 35 -12 11 -13 10 -9 -3z"/>
<path d="M2458 2373 c-18 -37 -16 -54 5 -52 9 0 9 2 0 6 -7 2 -13 9 -13 15 0
6 6 8 13 5 9 -3 13 6 14 29 1 19 0 34 0 34 -1 -1 -10 -17 -19 -37z"/>
<path d="M1044 2383 c-3 -10 -10 -28 -15 -41 -13 -33 -11 -52 6 -52 8 0 15 -4
15 -10 0 -17 38 -11 45 8 5 14 4 15 -6 5 -18 -18 -27 -16 -40 10 -11 20 -11
21 5 8 13 -11 19 -12 29 -2 9 10 8 11 -7 5 -16 -6 -18 -4 -13 11 4 9 2 24 -4
32 -16 18 -3 29 15 13 9 -6 21 -10 28 -7 8 4 7 6 -4 6 -10 1 -18 8 -18 16 0
21 -29 19 -36 -2z m16 -43 c0 -5 -4 -10 -10 -10 -5 0 -10 5 -10 10 0 6 5 10
10 10 6 0 10 -4 10 -10z"/>
<path d="M2520 2379 c0 -11 4 -18 10 -14 5 3 7 12 3 20 -7 21 -13 19 -13 -6z"/>
<path d="M934 2356 c-3 -9 -10 -14 -14 -11 -4 3 -10 -1 -13 -8 -3 -7 4 -12 18
-12 13 0 21 4 18 9 -3 4 0 12 7 16 9 5 9 9 1 14 -6 4 -14 0 -17 -8z"/>
<path d="M1134 2361 c4 -6 2 -11 -3 -11 -6 0 -11 -5 -11 -11 0 -8 4 -8 13 0
10 8 17 7 25 -1 9 -9 12 -9 12 0 0 6 -10 16 -21 23 -15 8 -19 8 -15 0z"/>
<path d="M1360 2361 c0 -6 4 -13 10 -16 6 -3 7 1 4 9 -7 18 -14 21 -14 7z"/>
<path d="M2561 2354 c0 -11 3 -14 6 -6 3 7 2 16 -1 19 -3 4 -6 -2 -5 -13z"/>
<path d="M2405 2340 c-3 -5 1 -10 9 -10 9 0 16 5 16 10 0 6 -4 10 -9 10 -6 0
-13 -4 -16 -10z"/>
<path d="M2486 2305 c-9 -26 -7 -32 5 -12 6 10 9 21 6 23 -2 3 -7 -2 -11 -11z"/>
<path d="M900 2298 l-25 -10 23 -11 c18 -8 26 -7 40 8 9 10 12 15 5 11 -6 -3
-13 -2 -15 3 -2 5 -14 4 -28 -1z"/>
<path d="M1271 2280 c-12 -17 -30 -29 -39 -28 -9 2 -18 -5 -20 -16 -3 -11 0
-16 7 -11 6 3 8 11 5 17 -4 6 -2 8 4 5 7 -5 7 -16 -1 -36 -6 -17 -14 -28 -18
-25 -4 2 -10 0 -14 -6 -3 -5 -2 -10 3 -10 6 0 8 -10 4 -22 -4 -18 -2 -20 16
-16 29 8 28 0 0 -12 -22 -9 -22 -9 3 -9 19 -1 28 5 32 19 3 11 1 20 -4 20 -16
0 4 35 39 68 19 18 38 30 41 26 3 -4 0 -9 -6 -11 -7 -3 -13 -9 -13 -14 0 -5 9
-4 19 3 15 9 17 16 9 25 -5 7 -8 19 -5 27 6 15 -10 36 -28 36 -6 0 -21 -14
-34 -30z"/>
<path d="M1356 2297 c3 -10 9 -15 12 -12 3 3 0 11 -7 18 -10 9 -11 8 -5 -6z"/>
<path d="M2381 2286 c-7 -8 -9 -21 -5 -27 5 -8 3 -9 -5 -5 -7 5 -10 14 -7 22
8 22 2 17 -55 -37 -30 -29 -38 -38 -18 -22 20 17 47 30 60 29 21 -1 24 -7 27
-43 2 -30 8 -43 18 -43 9 0 12 -5 8 -12 -4 -7 -3 -8 4 -4 15 9 16 -6 2 -20 -7
-7 -7 -18 0 -35 8 -19 9 -20 8 -4 -3 29 12 66 23 60 5 -4 9 -1 9 5 0 6 -7 10
-17 8 -10 -2 -19 7 -24 25 -4 15 -3 27 2 27 5 0 9 7 9 16 0 14 3 14 15 4 12
-10 15 -9 15 7 0 30 -11 34 -30 11 -23 -29 -43 -16 -29 19 11 31 7 39 -10 19z"/>
<path d="M1411 2273 c7 -12 15 -20 18 -17 3 2 -3 12 -13 22 -17 16 -18 16 -5
-5z"/>
<path d="M1895 2280 c-3 -5 -2 -18 4 -27 7 -14 9 -12 8 10 -2 30 -3 31 -12 17z"/>
<path d="M1380 2275 c0 -15 18 -40 24 -34 3 3 -1 14 -9 25 -8 10 -14 15 -15 9z"/>
<path d="M960 2255 c0 -10 7 -15 18 -13 21 4 19 22 -2 26 -10 2 -16 -3 -16
-13z"/>
<path d="M1186 2255 c-11 -8 -15 -15 -9 -15 6 0 16 7 23 15 16 19 11 19 -14 0z"/>
<path d="M1350 2266 c0 -2 8 -10 18 -17 15 -13 16 -12 3 4 -13 16 -21 21 -21
13z"/>
<path d="M2490 2250 c0 -11 4 -20 9 -20 5 0 7 9 4 20 -3 11 -7 20 -9 20 -2 0
-4 -9 -4 -20z"/>
<path d="M922 2244 c-12 -8 -27 -25 -33 -36 -9 -17 -8 -24 6 -34 15 -12 15
-13 -4 -24 -15 -8 -21 -8 -21 0 0 6 -7 4 -16 -5 -13 -12 -14 -19 -5 -28 8 -8
11 -6 11 9 0 14 2 16 9 6 7 -11 13 -9 30 9 11 12 21 26 21 30 0 4 3 16 6 26 5
15 4 15 -5 3 -5 -8 -13 -11 -16 -8 -4 4 0 17 9 30 11 15 16 17 16 8 1 -11 3
-10 11 3 15 25 7 30 -19 11z"/>
<path d="M1000 2219 c0 -11 -4 -17 -10 -14 -6 3 -10 -4 -10 -16 0 -12 1 -20 3
-18 36 46 47 69 33 69 -9 0 -16 -9 -16 -21z"/>
<path d="M1136 2214 c-17 -12 -17 -14 -4 -14 9 0 20 5 23 11 11 17 2 18 -19 3z"/>
<path d="M1436 2222 c-3 -6 1 -13 10 -16 23 -9 28 -2 10 13 -8 7 -17 8 -20 3z"/>
<path d="M1170 2205 c-20 -24 -6 -28 15 -5 10 11 13 20 8 20 -6 0 -16 -7 -23
-15z"/>
<path d="M1343 2209 c-13 -13 -6 -39 9 -39 5 0 7 8 4 18 -5 16 -2 18 24 14 18
-3 30 0 30 7 0 14 -53 14 -67 0z"/>
<path d="M1490 2210 c8 -5 22 -10 30 -10 13 0 13 1 0 10 -8 5 -22 10 -30 10
-13 0 -13 -1 0 -10z"/>
<path d="M1846 2213 c-10 -10 -7 -25 4 -18 6 3 10 1 10 -4 0 -6 -7 -11 -15
-11 -8 0 -15 5 -15 10 0 6 -16 -5 -36 -24 -20 -19 -34 -41 -31 -48 3 -8 6 -5
6 6 1 11 4 16 8 12 4 -4 6 -24 4 -44 -3 -37 -3 -37 18 -18 26 23 26 35 4 52
-10 7 -15 16 -11 20 5 4 16 -1 27 -10 14 -13 21 -14 27 -5 4 7 3 10 -4 5 -7
-4 -10 1 -9 14 1 11 6 20 13 20 21 0 33 24 19 37 -7 6 -16 9 -19 6z m-19 -48
c0 -17 -13 -20 -21 -6 -4 5 0 12 6 14 7 3 13 6 14 6 0 1 1 -6 1 -14z m-30 -77
c-3 -8 -6 -5 -6 6 -1 11 2 17 5 13 3 -3 4 -12 1 -19z"/>
<path d="M2305 2210 c-3 -5 -3 -15 1 -22 5 -7 2 -9 -8 -6 -18 8 -46 -8 -34
-19 5 -4 11 -2 13 5 4 10 8 10 19 1 8 -6 14 -8 15 -3 0 5 2 19 3 32 3 24 0 27
-9 12z"/>
<path d="M1020 2199 c0 -5 5 -7 10 -4 6 3 10 8 10 11 0 2 -4 4 -10 4 -5 0 -10
-5 -10 -11z"/>
<path d="M1270 2190 c-6 -11 -9 -20 -8 -21 18 -5 55 -3 52 3 -3 4 -12 8 -21 8
-9 0 -13 6 -9 15 8 22 -1 18 -14 -5z"/>
<path d="M1700 2203 c8 -3 18 -11 22 -17 5 -7 8 -4 8 7 0 11 -7 17 -22 16 -16
0 -18 -2 -8 -6z"/>
<path d="M2480 2199 c0 -5 5 -7 10 -4 6 3 10 8 10 11 0 2 -4 4 -10 4 -5 0 -10
-5 -10 -11z"/>
<path d="M1097 2193 c-4 -7 -3 -14 2 -18 6 -3 8 -12 4 -20 -3 -8 0 -15 6 -15
12 0 13 16 2 44 -5 13 -10 16 -14 9z"/>
<path d="M1500 2190 c-25 -4 -48 -6 -52 -3 -5 2 -8 -1 -8 -7 0 -8 10 -9 30 -5
20 4 37 2 47 -7 11 -9 14 -9 10 -1 -9 15 35 29 54 17 8 -4 9 -3 5 4 -8 13 -18
13 -86 2z"/>
<path d="M1606 2192 c-3 -5 11 -9 31 -10 40 -2 41 2 1 12 -15 3 -29 2 -32 -2z"/>
<path d="M1130 2169 c0 -5 5 -7 10 -4 6 3 10 8 10 11 0 2 -4 4 -10 4 -5 0 -10
-5 -10 -11z"/>
<path d="M1695 2170 c-3 -5 -1 -10 4 -10 6 0 11 5 11 10 0 6 -2 10 -4 10 -3 0
-8 -4 -11 -10z"/>
<path d="M1623 2163 c9 -2 25 -2 35 0 9 3 1 5 -18 5 -19 0 -27 -2 -17 -5z"/>
<path d="M1680 2134 c0 -8 5 -12 10 -9 6 4 8 11 5 16 -9 14 -15 11 -15 -7z"/>
<path d="M1266 2125 c-3 -9 -6 -24 -5 -33 0 -9 5 -4 10 12 9 32 6 48 -5 21z"/>
<path d="M975 2120 c-3 -5 1 -10 10 -10 9 0 13 5 10 10 -3 6 -8 10 -10 10 -2
0 -7 -4 -10 -10z"/>
<path d="M1207 2093 c-3 -5 6 -8 19 -8 13 0 24 3 24 8 0 4 -9 7 -19 7 -11 0
-22 -3 -24 -7z"/>
<path d="M1730 2090 c0 -5 10 -10 23 -10 18 0 19 2 7 10 -19 13 -30 13 -30 0z"/>
<path d="M2137 2094 c-6 -10 9 -42 16 -34 3 3 1 14 -3 24 -3 11 -9 15 -13 10z"/>
<path d="M958 2083 c7 -3 16 -2 19 1 4 3 -2 6 -13 5 -11 0 -14 -3 -6 -6z"/>
<path d="M998 2083 c6 -2 18 -2 25 0 6 3 1 5 -13 5 -14 0 -19 -2 -12 -5z"/>
<path d="M877 2073 c-2 -4 -7 -24 -11 -43 l-6 -35 15 39 c13 35 15 61 2 39z"/>
<path d="M2111 2073 c-1 -6 -15 -20 -32 -31 -34 -21 -27 -34 21 -39 23 -3 23
-2 -5 10 -19 9 -25 16 -17 21 7 4 12 2 12 -3 0 -14 33 -14 47 0 8 8 13 8 17 0
4 -6 0 -11 -9 -11 -10 0 -15 -7 -13 -17 2 -9 8 -15 13 -12 6 2 9 8 7 12 -1 5
2 6 7 3 19 -12 20 12 1 29 -15 14 -23 15 -34 6 -9 -7 -17 -8 -20 -2 -3 5 -1
11 5 13 7 2 9 11 6 19 -3 7 -6 9 -6 2z"/>
<path d="M2324 2053 c-2 -27 -1 -27 14 3 8 15 8 21 -1 21 -7 0 -13 -11 -13
-24z"/>
<path d="M1680 2060 c0 -5 5 -10 10 -10 6 0 10 5 10 10 0 6 -4 10 -10 10 -5 0
-10 -4 -10 -10z"/>
<path d="M2357 2063 c-4 -3 -7 -11 -7 -17 0 -6 4 -4 10 4 5 8 12 11 16 7 4 -4
0 -15 -9 -25 -10 -10 -17 -22 -17 -27 0 -4 9 4 21 19 11 14 17 30 14 36 -7 12
-19 13 -28 3z"/>
<path d="M1765 2041 c-3 -5 -23 -8 -45 -7 -28 2 -40 -1 -40 -10 0 -21 54 -17
81 6 13 10 21 19 17 20 -4 0 -9 -4 -13 -9z"/>
<path d="M2240 2030 c0 -19 3 -21 12 -12 9 9 9 15 0 24 -9 9 -12 7 -12 -12z"/>
<path d="M2320 2000 c0 -5 -8 -6 -17 -3 -12 5 -15 2 -10 -10 3 -9 2 -19 -3
-22 -6 -4 -10 -12 -10 -18 0 -7 11 0 24 15 12 15 26 24 30 21 4 -4 4 0 0 10
-7 19 -14 22 -14 7z"/>
<path d="M1719 1973 c-14 -37 -11 -38 16 -9 29 32 30 33 9 33 -9 0 -20 -11
-25 -24z"/>
<path d="M1994 1975 c-7 -27 -31 -39 -60 -29 -18 5 -18 5 0 -6 22 -15 66 1 66
24 0 8 8 20 18 25 16 10 16 10 0 11 -11 0 -20 -10 -24 -25z"/>
<path d="M2260 1985 c-7 -9 -11 -18 -8 -20 3 -3 11 1 18 10 7 9 11 18 8 20 -3
3 -11 -1 -18 -10z"/>
<path d="M1684 1957 c-1 -30 -1 -30 9 -9 6 14 7 26 1 32 -5 5 -9 -4 -10 -23z"/>
<path d="M848 1928 c-1 -29 -2 -63 -2 -75 0 -13 -4 -23 -8 -23 -4 0 -8 -8 -8
-17 0 -22 19 -4 24 23 13 71 17 144 7 144 -6 0 -12 -22 -13 -52z"/>
<path d="M941 1954 c0 -11 3 -14 6 -6 3 7 2 16 -1 19 -3 4 -6 -2 -5 -13z"/>
<path d="M2050 1955 c0 -8 7 -15 15 -15 8 0 15 7 15 15 0 8 -7 15 -15 15 -8 0
-15 -7 -15 -15z"/>
<path d="M2251 1928 c0 -16 -6 -28 -12 -28 -5 0 -8 4 -5 9 3 5 -5 8 -19 7 -27
-1 -22 -10 13 -21 24 -7 37 11 29 42 -3 12 -5 8 -6 -9z"/>
<path d="M923 1885 c0 -33 2 -45 4 -27 2 18 2 45 0 60 -2 15 -4 0 -4 -33z"/>
<path d="M1867 1918 l-27 -10 22 -19 c13 -10 18 -18 13 -19 -6 0 -16 5 -22 11
-14 14 -36 2 -27 -13 5 -8 1 -9 -10 -5 -10 4 -24 1 -32 -8 -9 -8 -11 -15 -6
-15 5 0 12 3 16 7 4 4 22 8 40 8 49 3 61 13 40 36 -16 18 -15 18 14 15 18 -3
32 1 35 8 6 15 -19 17 -56 4z"/>
<path d="M831 1904 c0 -11 3 -14 6 -6 3 7 2 16 -1 19 -3 4 -6 -2 -5 -13z"/>
<path d="M940 1882 c0 -23 5 -42 10 -42 7 0 8 14 4 38 -9 51 -14 53 -14 4z"/>
<path d="M1650 1906 c4 -4 16 -4 26 2 16 9 14 10 -8 9 -15 -1 -23 -6 -18 -11z"/>
<path d="M1674 1889 c-3 -6 -15 -8 -26 -6 -15 4 -18 1 -13 -15 4 -12 0 -27
-11 -39 -9 -10 -13 -19 -8 -19 5 0 18 14 27 30 10 17 22 30 26 30 5 0 11 7 15
15 6 17 0 20 -10 4z"/>
<path d="M2171 1884 c0 -11 3 -14 6 -6 3 7 2 16 -1 19 -3 4 -6 -2 -5 -13z"/>
<path d="M2016 1882 c-2 -4 -1 -14 4 -22 7 -11 11 -11 24 -1 9 8 16 17 16 22
0 11 -37 12 -44 1z"/>
<path d="M2196 1874 c-8 -22 -4 -25 11 -9 7 8 9 16 4 19 -5 3 -12 -1 -15 -10z"/>
<path d="M1607 1851 c-4 -17 -3 -21 5 -13 5 5 8 16 6 23 -3 8 -7 3 -11 -10z"/>
<path d="M2086 1861 c-4 -7 -5 -15 -2 -18 9 -9 19 4 14 18 -4 11 -6 11 -12 0z"/>
<path d="M1743 1827 c-24 -31 -25 -41 -2 -22 13 11 25 21 27 21 2 1 -1 5 -6 8
-5 3 -14 0 -19 -7z"/>
<path d="M2125 1831 c6 -10 2 -12 -13 -7 -11 4 -23 2 -27 -4 -3 -6 4 -10 17
-11 13 0 17 -3 10 -6 -7 -2 -17 -14 -23 -26 -11 -19 -9 -19 18 4 30 24 35 41
18 56 -4 4 -5 2 0 -6z"/>
<path d="M1897 1814 c-3 -3 -3 -12 0 -20 3 -8 -1 -14 -10 -14 -27 0 -26 -15 0
-17 14 0 29 -6 33 -13 6 -9 9 -9 12 1 3 9 10 7 25 -8 16 -16 18 -24 10 -33 -9
-9 -5 -10 18 -4 36 8 57 23 49 35 -3 5 0 9 5 9 6 0 2 9 -9 20 -25 25 -53 26
-48 3 3 -12 12 -17 28 -16 22 2 23 1 7 -8 -9 -6 -15 -14 -12 -20 4 -5 1 -9 -4
-9 -6 0 -11 6 -11 13 0 7 -10 17 -22 22 -13 6 -22 15 -21 20 2 12 -42 46 -50
39z m17 -34 c-6 -6 -10 -3 -10 10 0 13 4 16 10 10 7 -7 7 -13 0 -20z"/>
<path d="M843 1785 c-3 -9 -3 -18 -1 -21 3 -3 8 4 11 16 6 23 -1 27 -10 5z"/>
<path d="M942 1740 c0 -14 2 -19 5 -12 2 6 2 18 0 25 -3 6 -5 1 -5 -13z"/>
<path d="M1514 1739 c-12 -14 -12 -18 -1 -27 17 -15 28 -5 19 16 -5 14 -3 15
10 5 12 -11 18 -10 31 5 15 17 15 18 -14 17 -17 0 -37 -7 -45 -16z"/>
<path d="M1776 1731 c-32 -14 -36 -19 -22 -24 25 -10 56 -9 56 2 0 4 -12 7
-27 5 -27 -4 -26 -4 4 8 32 13 54 29 37 27 -5 0 -27 -8 -48 -18z"/>
<path d="M1926 1714 c-4 -9 -13 -14 -21 -10 -8 3 -15 1 -15 -4 0 -15 29 -12
46 4 16 17 18 26 5 26 -5 0 -12 -7 -15 -16z"/>
<path d="M946 1683 c-6 -14 -5 -15 5 -6 7 7 10 15 7 18 -3 3 -9 -2 -12 -12z"/>
<path d="M1717 1694 c-9 -9 15 -30 43 -38 23 -6 23 -6 -3 9 -15 9 -25 20 -22
25 7 11 -8 14 -18 4z"/>
<path d="M1853 1683 c0 -9 4 -10 14 -2 7 6 13 12 13 14 0 1 -6 2 -13 2 -8 0
-14 -6 -14 -14z"/>
<path d="M1763 1679 c11 -7 23 -7 35 0 14 9 11 10 -18 10 -29 0 -32 -1 -17
-10z"/>
<path d="M1380 1651 c0 -16 3 -36 6 -45 10 -27 24 -7 24 35 0 28 -4 39 -15 39
-10 0 -15 -10 -15 -29z"/>
<path d="M1454 1660 c0 -9 6 -17 13 -17 7 0 20 8 28 17 13 15 12 16 -13 16
-19 0 -28 -5 -28 -16z m36 6 c0 -3 -4 -8 -10 -11 -5 -3 -10 -1 -10 4 0 6 5 11
10 11 6 0 10 -2 10 -4z"/>
<path d="M1640 1672 c0 -7 17 -18 63 -40 4 -2 7 1 7 6 0 6 -11 13 -25 16 -14
4 -25 11 -25 16 0 6 -4 10 -10 10 -5 0 -10 -4 -10 -8z"/>
<path d="M1801 1654 c0 -11 3 -14 6 -6 3 7 2 16 -1 19 -3 4 -6 -2 -5 -13z"/>
<path d="M931 1644 c0 -11 3 -14 6 -6 3 7 2 16 -1 19 -3 4 -6 -2 -5 -13z"/>
<path d="M1600 1649 c-13 -9 -12 -10 2 -5 10 3 20 1 23 -4 4 -6 1 -10 -6 -10
-7 0 -10 -2 -7 -5 3 -3 16 -2 29 3 l23 9 -21 12 c-26 13 -24 13 -43 0z"/>
<path d="M940 1590 c0 -5 5 -10 11 -10 5 0 7 5 4 10 -3 6 -8 10 -11 10 -2 0
-4 -4 -4 -10z"/>
<path d="M1320 1590 c0 -5 7 -10 16 -10 8 0 12 5 9 10 -3 6 -10 10 -16 10 -5
0 -9 -4 -9 -10z"/>
<path d="M952 1529 c6 -16 12 -28 14 -26 5 5 -13 57 -20 57 -3 0 0 -14 6 -31z"/>
<path d="M1005 1510 c3 -5 8 -10 11 -10 2 0 4 5 4 10 0 6 -5 10 -11 10 -5 0
-7 -4 -4 -10z"/>
<path d="M1296 1509 c2 -4 0 -11 -6 -14 -6 -4 -8 -15 -5 -25 5 -16 0 -17 -40
-13 -30 4 -45 2 -45 -6 0 -6 16 -11 36 -11 25 0 33 -4 29 -12 -4 -7 5 -1 19
15 14 15 23 34 20 42 -4 8 -2 15 4 15 6 0 12 -6 15 -12 3 -7 5 -4 4 7 -1 13
-8 21 -18 21 -10 0 -16 -4 -13 -7z"/>
<path d="M1345 1510 c-3 -6 1 -7 9 -4 18 7 21 14 7 14 -6 0 -13 -4 -16 -10z"/>
<path d="M990 1441 c0 -7 -4 -9 -10 -6 -6 4 -7 -1 -3 -11 6 -15 7 -15 15 1 6
9 7 19 4 22 -3 4 -6 1 -6 -6z"/>
<path d="M1020 1431 c0 -6 4 -13 10 -16 6 -3 7 1 4 9 -7 18 -14 21 -14 7z"/>
<path d="M1196 1415 c-3 -9 -11 -13 -17 -9 -8 4 -9 3 -5 -4 4 -7 18 -11 31
-10 20 2 22 5 12 18 -6 8 -12 16 -13 18 -1 2 -4 -4 -8 -13z"/>
<path d="M1230 1420 c0 -5 5 -10 11 -10 5 0 7 5 4 10 -3 6 -8 10 -11 10 -2 0
-4 -4 -4 -10z"/>
<path d="M996 1404 c-4 -10 -4 -15 0 -12 3 4 13 0 21 -8 9 -8 18 -12 21 -9 3
3 -3 15 -15 26 -19 19 -21 20 -27 3z"/>
<path d="M1117 1402 c1 -8 3 -16 3 -18 0 -2 12 -4 26 -4 14 0 23 4 19 10 -3 6
-15 10 -25 10 -10 0 -20 3 -23 8 -2 4 -2 1 0 -6z"/>
<path d="M3142 2215 c-18 -8 -39 -12 -46 -9 -8 3 -17 1 -21 -5 -3 -6 0 -9 8
-5 8 3 18 1 22 -5 3 -6 1 -11 -5 -11 -6 0 -8 -5 -4 -11 5 -8 9 -7 14 1 5 9 22
11 51 8 24 -3 38 -4 31 -1 -10 4 -10 8 0 21 10 14 10 15 -2 5 -8 -7 -28 -13
-44 -12 l-31 1 33 10 c17 6 32 15 32 19 0 11 2 11 -38 -6z"/>
<path d="M3033 2194 c-14 -6 20 -44 40 -44 6 1 2 9 -10 19 -12 10 -19 21 -16
25 7 7 4 7 -14 0z"/>
<path d="M3128 2163 c7 -3 16 -2 19 1 4 3 -2 6 -13 5 -11 0 -14 -3 -6 -6z"/>
<path d="M2932 2148 c5 -15 28 -23 28 -10 0 5 -7 13 -16 16 -10 4 -14 1 -12
-6z"/>
<path d="M3131 2136 c2 -1 18 -8 36 -14 26 -9 31 -8 26 4 -3 8 -18 14 -36 14
-17 0 -28 -2 -26 -4z"/>
<path d="M3525 2130 c-3 -5 -1 -10 4 -10 6 0 11 5 11 10 0 6 -2 10 -4 10 -3 0
-8 -4 -11 -10z"/>
<path d="M3280 2110 c0 -5 7 -10 15 -10 8 0 15 5 15 10 0 6 -7 10 -15 10 -8 0
-15 -4 -15 -10z"/>
<path d="M3453 2103 c9 -2 25 -2 35 0 9 3 1 5 -18 5 -19 0 -27 -2 -17 -5z"/>
<path d="M3510 2106 c0 -2 8 -10 18 -17 15 -13 16 -12 3 4 -13 16 -21 21 -21
13z"/>
<path d="M2735 2079 c-5 -8 62 -6 70 2 3 4 -11 6 -31 5 -20 0 -38 -4 -39 -7z"/>
<path d="M3275 2081 c-6 -5 -19 -11 -30 -14 -12 -3 -4 -5 17 -6 20 0 42 -3 50
-6 7 -3 22 0 31 8 17 12 17 13 -2 13 -11 0 -17 -5 -14 -10 4 -5 -1 -7 -11 -3
-10 4 -22 7 -27 7 -6 0 -7 5 -4 10 8 12 2 13 -10 1z"/>
<path d="M2666 2034 c-5 -14 -4 -15 9 -4 17 14 19 20 6 20 -5 0 -12 -7 -15
-16z"/>
<path d="M2695 2028 c-14 -17 -7 -26 9 -11 4 4 27 6 51 4 59 -3 59 16 0 21
-33 2 -49 -1 -60 -14z"/>
<path d="M3073 2035 c-4 -12 -9 -13 -19 -4 -9 7 -14 8 -14 1 0 -13 32 -25 39
-14 3 5 13 11 20 14 12 3 12 6 -2 11 -11 4 -20 1 -24 -8z"/>
<path d="M3530 2028 c0 -19 2 -20 10 -8 13 19 13 30 0 30 -5 0 -10 -10 -10
-22z"/>
<path d="M2654 2003 c4 -7 2 -13 -3 -13 -6 0 -11 -11 -11 -25 0 -28 12 -32 30
-10 7 9 21 13 31 10 11 -4 19 -2 19 4 0 6 -8 11 -17 11 -9 0 -25 8 -36 18 -11
9 -17 11 -13 5z"/>
<path d="M2985 1990 c-3 -6 1 -7 9 -4 18 7 21 14 7 14 -6 0 -13 -4 -16 -10z"/>
<path d="M3410 1991 c0 -6 5 -13 10 -16 6 -3 10 1 10 9 0 9 -4 16 -10 16 -5 0
-10 -4 -10 -9z"/>
<path d="M3520 1990 c0 -5 5 -10 11 -10 5 0 7 5 4 10 -3 6 -8 10 -11 10 -2 0
-4 -4 -4 -10z"/>
<path d="M2896 1958 c-9 -12 -16 -28 -16 -35 0 -7 -7 -10 -15 -7 -8 3 -23 -1
-35 -9 -18 -13 -19 -15 -5 -21 18 -7 77 23 70 35 -3 4 7 10 23 14 55 14 71 45
23 45 -20 0 -35 -8 -45 -22z m54 2 c-20 -13 -40 -13 -40 0 0 6 12 10 28 10 21
0 24 -2 12 -10z m-90 -60 c-20 -13 -33 -13 -25 0 3 6 14 10 23 10 15 0 15 -2
2 -10z"/>
<path d="M2654 1909 c-3 -6 -3 -13 0 -16 3 -4 6 -1 6 5 0 22 20 12 41 -20 13
-21 18 -25 14 -11 -5 20 -3 21 33 16 24 -3 42 -1 46 6 5 7 -6 11 -32 11 -21 0
-42 3 -45 7 -11 11 -56 12 -63 2z"/>
<path d="M3541 1884 c0 -11 3 -14 6 -6 3 7 2 16 -1 19 -3 4 -6 -2 -5 -13z"/>
<path d="M2670 1880 c0 -5 5 -10 11 -10 5 0 7 5 4 10 -3 6 -8 10 -11 10 -2 0
-4 -4 -4 -10z"/>
<path d="M3520 1850 c0 -5 5 -10 10 -10 6 0 10 5 10 10 0 6 -4 10 -10 10 -5 0
-10 -4 -10 -10z"/>
<path d="M3355 1756 c-4 -25 -5 -51 -2 -58 3 -7 6 4 6 25 1 33 4 37 26 37 23
0 24 2 15 20 -18 34 -38 24 -45 -24z"/>
<path d="M3527 1777 c-3 -9 3 -25 14 -38 15 -18 19 -19 19 -6 0 10 -5 17 -11
17 -5 0 -8 4 -5 8 2 4 1 14 -3 21 -7 10 -9 9 -14 -2z"/>
<path d="M3622 1745 c0 -11 4 -33 8 -50 l8 -30 0 30 c0 17 -3 39 -8 50 l-9 20
1 -20z"/>
<path d="M3520 1721 c0 -5 5 -13 10 -16 6 -3 10 -2 10 4 0 5 -4 13 -10 16 -5
3 -10 2 -10 -4z"/>
<path d="M3526 1619 c3 -30 0 -37 -11 -33 -8 4 -18 -1 -21 -10 -8 -21 -23 -20
-46 1 -12 10 -39 18 -68 19 l-50 3 16 -25 c9 -13 21 -24 28 -24 6 0 4 5 -4 10
-13 8 -12 10 3 10 11 0 15 4 11 12 -5 8 -2 9 10 5 10 -4 24 -7 32 -7 8 0 14
-4 14 -10 0 -5 -7 -6 -17 -3 -10 4 -14 2 -10 -4 9 -14 69 -25 76 -14 4 5 20
12 36 16 23 5 26 4 15 -4 -18 -13 -1 -15 18 -2 11 6 10 10 -3 15 -11 4 -15 13
-12 26 3 11 1 18 -4 14 -12 -7 -11 3 0 25 7 13 6 18 -3 18 -9 0 -12 -12 -10
-38z"/>
<path d="M3352 1630 c0 -14 2 -19 5 -12 2 6 2 18 0 25 -3 6 -5 1 -5 -13z"/>
<path d="M3468 1593 c7 -3 16 -2 19 1 4 3 -2 6 -13 5 -11 0 -14 -3 -6 -6z"/>
<path d="M3408 1533 c6 -2 18 -2 25 0 6 3 1 5 -13 5 -14 0 -19 -2 -12 -5z"/>
<path d="M3139 1698 c-12 -23 -12 -23 10 -4 23 21 26 26 11 26 -5 0 -15 -10
-21 -22z"/>
<path d="M3098 1693 c7 -3 16 -2 19 1 4 3 -2 6 -13 5 -11 0 -14 -3 -6 -6z"/>
<path d="M3062 1660 c-8 -13 -8 -20 -2 -20 6 0 13 7 17 15 9 24 -1 27 -15 5z"/>
<path d="M3086 1641 c-18 -36 -18 -36 2 -18 18 16 20 16 26 2 3 -9 6 -62 7
-118 1 -78 3 -95 10 -72 10 35 1 161 -15 209 l-11 33 -19 -36z"/>
<path d="M3018 1603 c-9 -10 -14 -23 -11 -29 2 -6 -4 -17 -14 -25 -15 -13 -16
-12 -10 6 7 19 7 19 -8 1 -19 -25 -13 -32 27 -31 30 1 33 3 34 35 1 19 -1 29
-3 22 -3 -6 -9 -9 -14 -6 -6 3 -6 11 2 20 6 7 15 11 20 8 5 -3 9 0 9 5 0 16
-15 13 -32 -6z m12 -66 c0 -7 -4 -6 -10 3 -8 12 -10 12 -10 1 0 -8 -3 -12 -6
-8 -9 9 6 28 17 22 5 -4 9 -12 9 -18z"/>
<path d="M3191 1573 c1 -10 5 -31 9 -48 7 -26 8 -24 7 18 0 26 -4 47 -9 47 -4
0 -7 -8 -7 -17z"/>
<path d="M3156 1423 c-6 -14 -5 -15 5 -6 7 7 10 15 7 18 -3 3 -9 -2 -12 -12z"/>
<path d="M3172 1410 c-7 -11 -8 -20 -3 -20 9 0 24 30 18 36 -1 2 -8 -6 -15
-16z"/>
<path d="M3124 1345 c-4 -9 -2 -21 4 -27 8 -8 9 -4 6 13 -5 19 -4 21 5 9 7 -9
11 -10 11 -3 0 19 -20 26 -26 8z"/>
<path d="M2825 1290 c3 -5 8 -10 11 -10 2 0 4 5 4 10 0 6 -5 10 -11 10 -5 0
-7 -4 -4 -10z"/>
<path d="M2636 1259 c3 -6 -25 -22 -56 -32 -8 -3 -4 -6 11 -6 14 -1 31 -7 38
-13 11 -11 12 -9 6 10 -6 20 -3 22 27 22 55 0 67 17 15 21 -25 2 -43 1 -41 -2z"/>
<path d="M2550 1245 c-25 -10 -29 -14 -15 -15 17 -2 16 -3 -5 -9 l-25 -7 27
-6 c22 -4 26 -2 23 14 -3 12 2 18 15 18 10 0 22 5 25 10 8 13 -2 12 -45 -5z"/>
<path d="M3040 1240 c0 -5 5 -10 10 -10 6 0 10 5 10 10 0 6 -4 10 -10 10 -5 0
-10 -4 -10 -10z"/>
<path d="M2465 1194 c-18 -14 -18 -14 2 -14 23 0 39 15 26 23 -5 3 -17 -1 -28
-9z"/>
<path d="M2964 1158 l0 -38 27 26 c26 24 31 53 8 38 -5 -3 -7 -8 -5 -12 2 -4
-2 -13 -10 -20 -16 -15 -17 -12 -5 21 7 17 6 24 -3 24 -7 0 -12 -16 -12 -39z"/>
<path d="M2195 1150 l-50 -8 50 0 c71 0 71 0 49 -18 -18 -15 -18 -15 3 -4 13
6 35 8 50 5 23 -4 24 -4 8 4 -16 7 -12 10 25 13 l45 5 -52 1 c-28 1 -57 4 -65
5 -7 2 -35 0 -63 -3z"/>
<path d="M2360 1130 c-24 -8 -24 -8 -2 -9 12 -1 25 -1 29 -2 4 0 9 4 11 10 4
12 -2 12 -38 1z"/>
<path d="M2166 1102 c6 -4 17 -22 25 -39 7 -18 20 -35 28 -38 11 -4 11 -2 3 8
-7 8 -9 17 -4 21 4 4 -1 12 -11 17 -9 6 -17 15 -17 21 0 7 6 6 15 -2 9 -7 18
-10 22 -6 10 10 -4 18 -39 22 -18 2 -28 0 -22 -4z"/>
<path d="M2808 1078 c-14 -17 -15 -24 -5 -30 8 -5 4 -8 -10 -8 -13 0 -23 -4
-23 -9 0 -5 -8 -12 -17 -14 -16 -4 -16 -5 -1 -6 9 0 20 4 23 9 3 6 14 10 23
10 15 0 15 -2 2 -11 -13 -9 -13 -10 0 -6 8 2 14 10 12 17 -2 8 3 10 13 7 8 -4
15 -2 15 3 0 6 -7 10 -15 10 -19 0 -19 9 2 32 9 10 12 18 7 18 -5 0 -17 -10
-26 -22z"/>
<path d="M2640 1030 c0 -5 7 -10 15 -10 8 0 15 5 15 10 0 6 -7 10 -15 10 -8 0
-15 -4 -15 -10z"/>
<path d="M2711 1019 c5 -11 12 -19 15 -19 3 0 3 4 -1 9 -3 6 2 14 11 19 14 8
12 10 -9 10 -23 0 -25 -3 -16 -19z"/>
<path d="M2675 1000 c-10 -11 -15 -20 -11 -20 11 0 39 30 34 36 -3 2 -13 -5
-23 -16z"/>
<path d="M2285 950 c-3 -5 1 -10 7 -13 17 -5 48 3 48 13 0 10 -49 10 -55 0z"/>
<path d="M2476 948 c-51 -9 -96 -38 -59 -38 11 0 23 4 29 9 5 5 29 13 54 18
25 5 41 11 35 14 -5 3 -32 2 -59 -3z"/>
<path d="M2350 930 c0 -5 10 -10 23 -10 18 0 19 2 7 10 -19 13 -30 13 -30 0z"/>
<path d="M2495 920 c-13 -6 -15 -9 -5 -9 8 0 22 4 30 9 18 12 2 12 -25 0z"/>
<path d="M1790 1560 c0 -5 5 -10 10 -10 6 0 10 5 10 10 0 6 -4 10 -10 10 -5 0
-10 -4 -10 -10z"/>
<path d="M1792 1465 c0 -16 2 -22 5 -12 2 9 2 23 0 30 -3 6 -5 -1 -5 -18z"/>
<path d="M1790 1419 c0 -6 -7 -8 -16 -5 -13 5 -15 0 -11 -33 2 -21 7 -43 11
-50 4 -6 2 -11 -3 -11 -6 0 -11 -5 -11 -11 0 -8 5 -7 15 1 9 7 18 10 22 6 4
-3 -2 -13 -13 -22 -18 -15 -18 -15 4 -3 13 8 23 19 24 24 0 6 4 15 9 21 11 13
-13 26 -34 18 -8 -3 -13 5 -15 23 -1 24 0 25 9 11 5 -10 14 -18 19 -18 6 0 10
8 10 18 0 15 -2 15 -11 2 -8 -12 -9 -9 -5 13 4 15 4 27 1 27 -3 0 -5 -5 -5
-11z m15 -79 c-3 -5 -11 -10 -16 -10 -6 0 -7 5 -4 10 3 6 11 10 16 10 6 0 7
-4 4 -10z"/>
<path d="M1436 1324 c-3 -8 -10 -13 -15 -10 -5 3 -15 -2 -22 -11 -8 -10 -9
-14 -2 -10 6 4 14 4 17 -1 2 -4 19 -8 38 -9 18 0 24 1 13 4 -33 8 -42 23 -17
29 24 7 30 24 8 24 -8 0 -17 -7 -20 -16z"/>
<path d="M1503 1303 c-21 -8 -15 -18 12 -19 14 -1 25 2 25 6 0 11 -22 18 -37
13z"/>
<path d="M1330 1220 c-6 -11 -8 -20 -6 -20 3 0 10 9 16 20 6 11 8 20 6 20 -3
0 -10 -9 -16 -20z"/>
<path d="M1341 1184 c0 -11 3 -14 6 -6 3 7 2 16 -1 19 -3 4 -6 -2 -5 -13z"/>
<path d="M1523 1165 c0 -22 2 -30 4 -17 2 12 2 30 0 40 -3 9 -5 -1 -4 -23z"/>
<path d="M1560 1185 c0 -8 5 -15 10 -15 6 0 10 7 10 15 0 8 -4 15 -10 15 -5 0
-10 -7 -10 -15z"/>
<path d="M1383 1176 c0 -8 4 -13 8 -10 4 2 10 -2 13 -8 3 -7 5 -4 3 6 -2 23
-24 33 -24 12z"/>
<path d="M1334 1108 c-4 -5 1 -17 11 -26 16 -16 17 -16 5 8 -10 21 -10 23 1
13 16 -16 32 -17 27 -1 -5 15 -36 19 -44 6z"/>
<path d="M1416 1038 c5 -8 2 -9 -9 -5 -24 9 -21 0 4 -14 17 -8 20 -8 14 1 -5
9 -1 10 14 5 13 -4 21 -2 21 5 0 6 -4 8 -10 5 -5 -3 -10 -1 -10 4 0 6 -7 11
-16 11 -9 0 -12 -5 -8 -12z"/>
<path d="M1689 1026 c13 -15 13 -19 0 -27 -12 -7 -12 -9 1 -9 8 0 21 4 28 9
14 8 7 16 -28 36 -13 8 -13 7 -1 -9z"/>
<path d="M1482 1013 c4 -21 30 -24 34 -5 1 7 0 8 -3 2 -8 -16 -26 -12 -19 5 3
8 1 15 -5 15 -6 0 -9 -8 -7 -17z"/>
<path d="M1580 1014 c0 -8 5 -12 10 -9 6 4 8 11 5 16 -9 14 -15 11 -15 -7z"/>
<path d="M1540 986 c7 -7 14 -6 21 1 9 9 7 12 -9 10 -14 -1 -18 -5 -12 -11z"/>
<path d="M1720 989 c-23 -10 -24 -11 -7 -21 10 -5 21 -7 24 -4 4 3 0 6 -8 6
-11 0 -11 2 1 10 20 13 40 13 40 -1 0 -5 -5 -7 -12 -3 -7 4 -8 3 -4 -4 7 -12
36 -5 36 8 0 8 -25 21 -38 19 -4 0 -18 -5 -32 -10z"/>
<path d="M1519 967 c11 -14 11 -17 0 -17 -9 0 -6 -5 6 -13 23 -13 65 -17 65
-5 0 4 -12 8 -26 8 -14 0 -23 4 -20 8 2 4 -5 14 -17 22 -20 12 -21 12 -8 -3z"/>
<path d="M1635 970 c-4 -6 7 -10 25 -10 18 0 29 4 25 10 -3 6 -15 10 -25 10
-10 0 -22 -4 -25 -10z"/>
<path d="M1806 971 c-4 -5 3 -7 14 -4 23 6 26 13 6 13 -8 0 -17 -4 -20 -9z"/>
<path d="M1594 944 c4 -9 1 -24 -6 -32 -8 -10 -9 -13 -2 -9 7 4 14 0 17 -8 4
-8 25 -24 48 -35 22 -12 38 -17 34 -11 -10 17 7 13 38 -8 20 -13 25 -20 15
-23 -7 -3 -10 -9 -5 -13 4 -5 13 -3 20 4 9 10 8 15 -8 27 -17 13 -18 16 -5 25
11 7 7 8 -15 3 -21 -4 -26 -3 -16 4 11 8 8 10 -12 9 -14 -1 -23 -5 -20 -9 6
-11 -2 -10 -32 4 -23 11 -30 28 -27 71 1 9 -5 17 -14 17 -11 0 -14 -5 -10 -16z"/>
<path d="M1964 935 c11 -8 26 -15 33 -15 22 0 14 8 -19 19 -30 10 -31 9 -14
-4z"/>
<path d="M1940 916 c6 -8 24 -17 38 -19 25 -4 24 -4 -5 -6 -17 0 -35 -6 -39
-12 -5 -9 1 -10 20 -5 16 4 34 2 41 -4 7 -6 19 -9 26 -8 7 2 13 -2 14 -9 1
-25 15 -25 15 0 0 19 -5 27 -17 28 -11 0 -13 3 -5 6 6 2 9 9 6 15 -4 6 -13 1
-21 -13 -8 -13 -12 -16 -9 -6 4 11 0 20 -12 23 -9 3 -25 10 -34 15 -25 13 -32
11 -18 -5z"/>
<path d="M2015 808 c-12 -36 -13 -58 -3 -58 5 0 6 10 3 22 -6 16 -4 20 7 15
11 -4 14 1 10 19 -5 30 -8 30 -17 2z"/>
<path d="M1945 810 c-4 -6 5 -10 20 -10 15 0 24 4 20 10 -3 6 -12 10 -20 10
-8 0 -17 -4 -20 -10z"/>
<path d="M1763 786 c-4 -5 -2 -6 4 -3 6 4 19 0 29 -9 18 -14 18 -15 -6 -8
l-25 6 27 -21 c15 -12 32 -20 37 -17 5 4 11 -2 14 -11 3 -13 6 -10 12 11 6 22
4 31 -9 38 -9 5 -15 12 -12 16 2 4 -12 7 -31 7 -19 0 -37 -4 -40 -9z m61 -12
c16 -16 13 -34 -6 -34 -5 0 -8 6 -5 14 3 7 0 19 -6 25 -6 6 -8 11 -5 11 4 0
14 -7 22 -16z"/>
<path d="M1965 752 c-24 -20 -30 -53 -8 -45 7 3 11 8 9 11 -3 3 2 10 11 17 8
6 14 17 12 23 -3 6 -11 4 -24 -6z"/>
<path d="M1900 741 c0 -6 5 -13 10 -16 6 -4 7 -11 4 -17 -4 -7 -2 -8 5 -4 8 6
9 12 2 20 -6 7 -8 16 -4 19 3 4 1 7 -5 7 -7 0 -12 -4 -12 -9z"/>
<path d="M3601 1184 c0 -11 3 -14 6 -6 3 7 2 16 -1 19 -3 4 -6 -2 -5 -13z"/>
<path d="M3571 1138 c-4 -13 -11 -40 -15 -60 -4 -21 -11 -38 -16 -38 -5 0 -7
8 -4 18 5 14 4 15 -5 2 -16 -23 -13 -40 8 -40 13 0 21 10 25 33 3 17 8 41 10
52 2 11 7 28 11 38 4 9 4 17 1 17 -4 0 -10 -10 -15 -22z"/>
<path d="M3605 1150 c3 -5 8 -10 11 -10 2 0 4 5 4 10 0 6 -5 10 -11 10 -5 0
-7 -4 -4 -10z"/>
<path d="M3599 1122 c10 -7 11 -14 1 -33 -11 -23 -10 -23 5 -4 17 22 15 37 -6
43 -11 3 -12 2 0 -6z"/>
<path d="M3600 1042 c0 -13 4 -21 9 -17 5 3 12 -3 14 -12 4 -14 5 -14 6 -2 0
8 -6 24 -14 35 -14 18 -14 18 -15 -4z"/>
<path d="M3605 937 c1 -37 -1 -70 -6 -73 -5 -3 -8 -26 -8 -52 l2 -47 8 45 c16
88 18 116 9 155 -7 34 -7 29 -5 -28z"/>
<path d="M3483 942 c6 -15 16 -30 22 -34 6 -5 5 -12 -5 -19 -13 -9 -13 -10 0
-6 9 2 15 16 15 34 0 22 -4 29 -14 25 -9 -3 -12 -1 -8 5 4 6 0 13 -8 16 -12 5
-12 2 -2 -21z"/>
<path d="M3432 908 c-18 -17 -29 -34 -26 -37 3 -3 10 1 15 9 8 11 9 8 6 -13
-2 -15 0 -30 4 -33 5 -3 9 6 9 20 0 16 7 27 20 31 11 3 20 11 20 18 0 8 -3 8
-12 -1 -7 -7 -19 -12 -27 -12 -12 1 -10 6 8 21 13 11 22 22 19 24 -3 3 -19 -9
-36 -27z"/>
<path d="M3550 870 c0 -5 5 -10 10 -10 6 0 10 5 10 10 0 6 -4 10 -10 10 -5 0
-10 -4 -10 -10z"/>
<path d="M3347 832 c-18 -20 -13 -32 12 -31 12 0 11 3 -4 8 -18 7 -17 9 10 24
17 9 23 16 14 17 -9 0 -23 -8 -32 -18z"/>
<path d="M3385 820 c-3 -5 -2 -10 4 -10 5 0 18 -3 28 -7 17 -6 17 -6 1 10 -19
20 -24 21 -33 7z"/>
<path d="M3527 730 c-6 -23 11 -28 19 -6 3 8 12 12 20 9 8 -3 14 0 14 6 0 20
-47 12 -53 -9z"/>
<path d="M3155 706 c-11 -7 -33 -18 -50 -24 -18 -6 -23 -11 -12 -11 18 -1 97
35 97 44 0 9 -15 5 -35 -9z"/>
<path d="M3552 708 c-7 -9 -6 -17 3 -25 10 -10 14 -9 19 3 13 33 -1 47 -22 22z"/>
<path d="M3038 663 c6 -2 18 -2 25 0 6 3 1 5 -13 5 -14 0 -19 -2 -12 -5z"/>
<path d="M3520 645 c-18 -34 -4 -44 23 -16 20 20 21 21 2 15 -18 -7 -18 -6 -6
9 7 9 9 17 4 17 -5 0 -16 -11 -23 -25z"/>
<path d="M3090 650 c-11 -7 -5 -8 20 -4 43 8 51 14 19 14 -13 0 -31 -5 -39
-10z"/>
<path d="M3170 650 c-13 -8 -13 -10 2 -10 9 0 20 5 23 10 8 13 -5 13 -25 0z"/>
<path d="M2674 633 c11 -11 48 -14 41 -3 -3 5 -16 10 -27 10 -12 0 -18 -3 -14
-7z"/>
<path d="M2888 633 c6 -2 18 -2 25 0 6 3 1 5 -13 5 -14 0 -19 -2 -12 -5z"/>
<path d="M3405 630 c4 -6 11 -8 16 -5 14 9 11 15 -7 15 -8 0 -12 -5 -9 -10z"/>
<path d="M3480 630 c0 -5 5 -10 10 -10 6 0 10 5 10 10 0 6 -4 10 -10 10 -5 0
-10 -4 -10 -10z"/>
<path d="M3451 614 c-1 -24 24 -40 35 -22 4 7 3 8 -5 4 -7 -4 -15 2 -20 16 -9
22 -10 22 -10 2z"/>
<path d="M2790 593 c-10 -12 -11 -18 -2 -21 7 -2 10 -7 7 -12 -3 -4 5 -5 17
-2 19 5 20 7 6 10 -22 4 -24 22 -3 22 8 0 15 5 15 10 0 15 -23 11 -40 -7z"/>
<path d="M2875 600 c3 -5 24 -10 46 -10 21 0 39 5 39 10 0 6 -21 10 -46 10
-27 0 -43 -4 -39 -10z"/>
<path d="M3440 565 c5 -21 -1 -29 -10 -15 -5 8 -12 11 -16 8 -3 -4 0 -13 8
-21 12 -12 15 -12 27 0 10 11 11 17 1 26 -6 7 -11 8 -10 2z"/>
<path d="M3363 523 c0 -19 0 -33 2 -31 1 2 9 17 17 35 15 29 14 31 -1 30 -12
-1 -17 -11 -18 -34z"/>
<path d="M2767 518 c-3 -11 1 -30 9 -42 7 -11 14 -15 14 -8 0 7 5 10 10 7 6
-4 8 3 6 17 -3 13 -5 28 -6 33 0 6 -5 2 -11 -8 -5 -9 -7 -22 -3 -29 4 -7 3 -8
-4 -4 -7 4 -9 18 -6 32 3 13 4 24 1 24 -2 0 -7 -10 -10 -22z"/>
<path d="M3392 505 c-14 -30 -12 -31 10 -5 10 10 14 22 9 24 -4 3 -13 -6 -19
-19z"/>
<path d="M3278 462 c-8 -30 -35 -38 -58 -17 -20 18 -24 15 -21 -17 2 -11 -5
-18 -16 -18 -14 0 -15 -2 -5 -9 10 -6 6 -10 -15 -14 -15 -3 -29 -1 -31 4 -2 5
-11 9 -20 9 -14 0 -15 -2 -2 -10 10 -6 -1 -11 -39 -16 -38 -5 -49 -9 -38 -16
9 -5 25 -4 39 1 13 6 49 13 80 16 45 5 56 9 51 21 -4 10 -1 14 8 13 15 -3 56
17 77 38 7 7 21 13 30 13 12 -1 10 -5 -8 -15 -14 -8 -20 -14 -14 -15 5 0 19 6
30 14 17 13 18 15 2 21 -9 4 -21 4 -27 1 -5 -3 -11 -1 -13 6 -3 7 -7 2 -10
-10z"/>
<path d="M2783 410 c2 -8 12 -16 23 -17 13 -2 15 -1 4 4 -8 3 -19 11 -23 17
-6 7 -7 6 -4 -4z"/>
<path d="M2907 385 c3 -14 9 -25 13 -25 12 0 6 43 -6 47 -7 2 -10 -6 -7 -22z"/>
<path d="M2948 403 c7 -3 16 -2 19 1 4 3 -2 6 -13 5 -11 0 -14 -3 -6 -6z"/>
<path d="M2958 383 c7 -3 16 -2 19 1 4 3 -2 6 -13 5 -11 0 -14 -3 -6 -6z"/>
<path d="M2772 114 c-7 -7 -12 -27 -12 -44 0 -16 -4 -30 -10 -30 -5 0 -10 -7
-10 -15 0 -34 19 -11 31 38 7 28 15 44 17 35 2 -10 11 -18 20 -17 11 0 12 2 4
6 -6 2 -10 8 -8 11 2 4 -1 12 -8 18 -9 8 -15 7 -24 -2z"/>
<path d="M3116 51 c-18 -7 -18 -8 -3 -14 9 -3 17 -2 17 4 0 6 5 7 12 3 7 -4 8
-3 4 4 -4 7 -8 12 -9 11 -1 0 -11 -4 -21 -8z"/>
<path d="M2970 41 c24 -17 8 -20 -49 -9 -29 5 -55 7 -58 4 -3 -3 19 -8 48 -13
48 -6 51 -8 24 -13 -20 -5 -8 -7 35 -7 44 0 57 2 40 8 -23 6 -22 7 10 9 l35 2
-30 8 c-16 4 -39 11 -50 15 -16 5 -17 5 -5 -4z"/>
<path d="M3058 43 c7 -3 16 -2 19 1 4 3 -2 6 -13 5 -11 0 -14 -3 -6 -6z"/>
<path d="M2818 33 c7 -3 16 -2 19 1 4 3 -2 6 -13 5 -11 0 -14 -3 -6 -6z"/>
<path d="M2791 14 c0 -11 3 -14 6 -6 3 7 2 16 -1 19 -3 4 -6 -2 -5 -13z"/>
<path d="M3078 23 c7 -3 16 -2 19 1 4 3 -2 6 -13 5 -11 0 -14 -3 -6 -6z"/>
</g>
</svg>
